<svg fill="none" height="640" viewBox="0 0 1280 640" width="1280"
    xmlns="http://www.w3.org/2000/svg">
    <rect fill="#E9DDFF" height="640" width="1280" />
    <path
        d="M180.26 421.042C168.108 421.042 157.778 416.832 149.271 408.411C140.764 399.991 136.51 389.705 136.51 377.552C136.51 365.399 140.721 355.113 149.141 346.693C157.561 338.273 167.847 334.063 180 334.063C183.993 334.063 187.596 334.54 190.807 335.495C194.019 336.45 196.754 337.795 199.01 339.531V243.438C199.01 236.667 201.441 230.851 206.302 225.99C211.163 221.128 216.979 218.698 223.75 218.698H251.615C257.691 218.698 262.856 220.825 267.109 225.078C271.363 229.332 273.49 234.583 273.49 240.833C273.49 246.91 271.363 252.118 267.109 256.458C262.856 260.799 257.691 262.969 251.615 262.969H223.75V377.552C223.75 389.705 219.54 399.991 211.12 408.411C202.7 416.832 192.413 421.042 180.26 421.042Z"
        fill="#6750A4" />
    <path
        d="M323.985 265.909H343.96L378.69 350.71H379.969L414.699 265.909H434.674V375H419.013V296.058H418.001L385.828 374.84H372.831L340.658 296.005H339.646V375H323.985V265.909ZM528.757 265.909H545.27V337.66C545.27 345.295 543.476 352.06 539.89 357.955C536.303 363.814 531.26 368.43 524.762 371.804C518.263 375.142 510.646 376.811 501.91 376.811C493.21 376.811 485.611 375.142 479.112 371.804C472.613 368.43 467.571 363.814 463.984 357.955C460.398 352.06 458.604 345.295 458.604 337.66V265.909H475.064V336.328C475.064 341.264 476.147 345.65 478.313 349.485C480.515 353.32 483.622 356.339 487.635 358.54C491.648 360.707 496.406 361.79 501.91 361.79C507.45 361.79 512.226 360.707 516.239 358.54C520.287 356.339 523.377 353.32 525.508 349.485C527.674 345.65 528.757 341.264 528.757 336.328V265.909ZM628.699 294.567C628.131 289.524 625.787 285.618 621.668 282.848C617.549 280.043 612.364 278.64 606.114 278.64C601.64 278.64 597.769 279.35 594.502 280.771C591.235 282.156 588.696 284.073 586.885 286.523C585.109 288.938 584.221 291.69 584.221 294.78C584.221 297.372 584.825 299.609 586.032 301.491C587.275 303.374 588.891 304.954 590.88 306.232C592.904 307.475 595.07 308.523 597.378 309.375C599.686 310.192 601.906 310.866 604.037 311.399L614.69 314.169C618.17 315.021 621.739 316.175 625.397 317.631C629.054 319.087 632.446 321.005 635.571 323.384C638.696 325.763 641.217 328.711 643.135 332.227C645.088 335.742 646.064 339.95 646.064 344.851C646.064 351.03 644.466 356.516 641.27 361.31C638.11 366.104 633.511 369.886 627.474 372.656C621.473 375.426 614.211 376.811 605.688 376.811C597.52 376.811 590.453 375.515 584.488 372.923C578.522 370.33 573.852 366.655 570.478 361.896C567.105 357.102 565.24 351.42 564.885 344.851H581.398C581.718 348.793 582.996 352.077 585.233 354.705C587.506 357.298 590.4 359.233 593.916 360.511C597.467 361.754 601.355 362.376 605.581 362.376C610.233 362.376 614.37 361.648 617.993 360.192C621.65 358.7 624.527 356.641 626.622 354.013C628.717 351.349 629.765 348.242 629.765 344.691C629.765 341.46 628.841 338.814 626.995 336.754C625.184 334.695 622.716 332.99 619.591 331.641C616.501 330.291 613.003 329.102 609.097 328.072L596.206 324.556C587.471 322.177 580.546 318.679 575.432 314.062C570.354 309.446 567.815 303.338 567.815 295.739C567.815 289.453 569.52 283.967 572.929 279.279C576.338 274.592 580.954 270.952 586.778 268.359C592.602 265.732 599.172 264.418 606.487 264.418C613.873 264.418 620.39 265.714 626.036 268.306C631.718 270.898 636.192 274.467 639.459 279.013C642.726 283.523 644.431 288.707 644.573 294.567H628.699ZM682.193 265.909V375H665.733V265.909H682.193ZM796.77 301.385H780.151C779.512 297.834 778.322 294.709 776.582 292.01C774.842 289.311 772.711 287.021 770.19 285.138C767.669 283.256 764.845 281.836 761.72 280.877C758.631 279.918 755.346 279.439 751.866 279.439C745.58 279.439 739.952 281.019 734.98 284.18C730.044 287.34 726.138 291.974 723.262 298.082C720.421 304.19 719 311.648 719 320.455C719 329.332 720.421 336.825 723.262 342.933C726.138 349.041 730.062 353.658 735.034 356.783C740.005 359.908 745.598 361.47 751.813 361.47C755.257 361.47 758.524 361.009 761.614 360.085C764.739 359.126 767.562 357.724 770.083 355.877C772.605 354.031 774.735 351.776 776.475 349.112C778.251 346.413 779.476 343.324 780.151 339.844L796.77 339.897C795.882 345.259 794.16 350.195 791.603 354.705C789.082 359.18 785.833 363.05 781.855 366.317C777.914 369.549 773.404 372.053 768.325 373.828C763.247 375.604 757.708 376.491 751.706 376.491C742.26 376.491 733.844 374.254 726.458 369.78C719.071 365.27 713.247 358.825 708.986 350.444C704.76 342.063 702.647 332.067 702.647 320.455C702.647 308.807 704.778 298.81 709.039 290.465C713.301 282.085 719.124 275.657 726.511 271.183C733.897 266.673 742.296 264.418 751.706 264.418C757.494 264.418 762.892 265.252 767.899 266.921C772.942 268.555 777.47 270.969 781.482 274.165C785.495 277.326 788.816 281.197 791.443 285.778C794.071 290.323 795.847 295.526 796.77 301.385ZM816.466 265.909H836.441L871.171 350.71H872.449L907.179 265.909H927.154V375H911.494V296.058H910.482L878.309 374.84H865.311L833.138 296.005H832.126V375H816.466V265.909ZM960.3 375H942.828L982.086 265.909H1001.1L1040.36 375H1022.89L992.047 285.724H991.195L960.3 375ZM963.23 332.28H1019.91V346.129H963.23V332.28ZM1067.57 265.909L1093.67 308.576H1094.52L1120.62 265.909H1139.69L1105.71 320.455L1139.9 375H1120.73L1094.52 332.919H1093.67L1067.46 375H1048.28L1083.07 320.455L1048.5 265.909H1067.57Z"
        fill="#6750A4" />
</svg>
